                  <svg
                    width="80"
                    height="49"
                    viewBox="0 0 80 49"
                    fill="none"
                    xmlns="http://www.w3.org/2000/svg"
                  >
                    <path
                      d="M25.3533 9.7144C26.7457 9.7144 27.8746 8.58559 27.8746 7.19314C27.8746 5.80068 26.7457 4.67188 25.3533 4.67188C23.9608 4.67188 22.832 5.80068 22.832 7.19314C22.832 8.58559 23.9608 9.7144 25.3533 9.7144Z"
                      fill="#ED3366"
                    ></path>
                    <path
                      d="M73.8171 3.1416C73.5069 3.1416 73.2468 3.24165 73.0467 3.45176C72.8466 3.66186 72.7466 3.92199 72.7466 4.23215V4.26216C72.6365 4.16211 72.5265 4.06206 72.3964 3.97202C72.0762 3.7319 71.706 3.5418 71.2758 3.38172C70.8456 3.23165 70.3754 3.15161 69.8651 3.15161C69.0647 3.15161 68.3444 3.36171 67.684 3.78192C67.0337 4.20213 66.5034 4.79243 66.1233 5.5328C65.7331 6.27317 65.543 7.1336 65.543 8.11409C65.543 9.07457 65.7331 9.935 66.1233 10.6754C66.5135 11.4157 67.0337 12.006 67.704 12.4262C68.3744 12.8465 69.1148 13.0566 69.9352 13.0566C70.3854 13.0566 70.8056 12.9865 71.1958 12.8364C71.586 12.6864 71.9162 12.5063 72.2063 12.2962C72.4164 12.1361 72.5965 11.976 72.7466 11.8159C72.7466 12.1161 72.8466 12.3662 73.0467 12.5763C73.2468 12.7864 73.5069 12.8865 73.8171 12.8865C74.1273 12.8865 74.3874 12.7864 74.5875 12.5763C74.7876 12.3662 74.8876 12.1061 74.8876 11.7959V4.24215C74.8876 3.92199 74.7876 3.66186 74.5875 3.45176C74.3774 3.24165 74.1273 3.1416 73.8171 3.1416ZM72.5064 9.62484C72.2863 10.0751 71.9762 10.4352 71.586 10.6954C71.1958 10.9555 70.7356 11.0856 70.2153 11.0856C69.705 11.0856 69.2548 10.9555 68.8546 10.6954C68.4644 10.4352 68.1543 10.0751 67.9342 9.62484C67.7141 9.17462 67.604 8.66436 67.604 8.10408C67.604 7.5338 67.7141 7.02354 67.9342 6.56331C68.1543 6.11309 68.4644 5.75291 68.8546 5.49278C69.2448 5.23265 69.695 5.10258 70.2153 5.10258C70.7356 5.10258 71.1958 5.23265 71.586 5.49278C71.9762 5.75291 72.2863 6.11309 72.5064 6.56331C72.7266 7.01354 72.8366 7.52379 72.8366 8.10408C72.8366 8.66436 72.7266 9.17462 72.5064 9.62484Z"
                      fill="#ED3366"
                    ></path>
                    <path
                      d="M78.9089 2.18109C79.5112 2.18109 79.9995 1.69284 79.9995 1.09055C79.9995 0.488255 79.5112 0 78.9089 0C78.3066 0 77.8184 0.488255 77.8184 1.09055C77.8184 1.69284 78.3066 2.18109 78.9089 2.18109Z"
                      fill="#ED3366"
                    ></path>
                    <path
                      d="M78.8889 3.32129C78.5787 3.32129 78.3186 3.42134 78.1185 3.63144C77.9184 3.84155 77.8184 4.10168 77.8184 4.41184V11.7855C77.8184 12.0957 77.9184 12.3558 78.1185 12.5659C78.3186 12.776 78.5787 12.8761 78.8889 12.8761C79.1991 12.8761 79.4592 12.776 79.6593 12.5659C79.8594 12.3558 79.9594 12.0957 79.9594 11.7855V4.41184C79.9594 4.10168 79.8594 3.84155 79.6593 3.63144C79.4592 3.43134 79.1991 3.32129 78.8889 3.32129Z"
                      fill="#ED3366"
                    ></path>
                    <path
                      d="M61.09 20.1898C59.7594 20.1898 58.6788 19.1493 58.5988 17.8486V25.5925C58.5988 28.9342 55.8774 31.6555 52.5358 31.6555C49.1941 31.6555 46.4727 28.9342 46.4727 25.5925V17.8686C46.3827 19.1693 45.3021 20.1898 43.9815 20.1898C42.6608 20.1898 41.5803 19.1693 41.4902 17.8686V25.5925C41.4902 31.6755 46.4427 36.628 52.5258 36.628C58.6088 36.628 63.5813 31.6855 63.5813 25.5925V17.8686C63.4912 19.1693 62.4107 20.1898 61.09 20.1898Z"
                      fill="#ED3366"
                    ></path>
                    <path
                      d="M47.044 46.1427C48.4199 46.1427 49.5352 45.0273 49.5352 43.6514C49.5352 42.2755 48.4199 41.1602 47.044 41.1602C45.6681 41.1602 44.5527 42.2755 44.5527 43.6514C44.5527 45.0273 45.6681 46.1427 47.044 46.1427Z"
                      fill="#ED3366"
                    ></path>
                    <path
                      d="M25.3526 20.2598C26.7285 20.2598 27.8438 19.1445 27.8438 17.7686C27.8438 16.3927 26.7285 15.2773 25.3526 15.2773C23.9767 15.2773 22.8613 16.3927 22.8613 17.7686C22.8613 19.1445 23.9767 20.2598 25.3526 20.2598Z"
                      fill="#ED3366"
                    ></path>
                    <path
                      d="M25.3526 36.5587C26.7285 36.5587 27.8438 35.4433 27.8438 34.0674C27.8438 32.6915 26.7285 31.5762 25.3526 31.5762C23.9767 31.5762 22.8613 32.6915 22.8613 34.0674C22.8613 35.4433 23.9767 36.5587 25.3526 36.5587Z"
                      fill="#ED3366"
                    ></path>
                    <path
                      d="M34.6475 31.5662C35.9682 31.5662 37.0487 32.5868 37.1387 33.8874V7.12402C37.0487 8.42467 35.9682 9.44519 34.6475 9.44519C33.3268 9.44519 32.2463 8.42467 32.1562 7.12402V33.8974C32.2463 32.5968 33.3268 31.5662 34.6475 31.5662Z"
                      fill="#ED3366"
                    ></path>
                    <path
                      d="M14.027 34.0469C14.027 33.9668 14.027 33.8768 14.037 33.7967C14.1571 32.6161 15.0975 31.6757 16.2781 31.5656H4.98249V9.41454C4.89245 10.7052 3.81191 11.7257 2.49124 11.7257C1.17058 11.7257 0.090045 10.6952 0 9.39453V33.9168C0.070035 32.5961 1.16058 31.5556 2.49124 31.5556C3.87194 31.5556 4.98249 32.6762 4.98249 34.0469C4.98249 35.4175 3.88194 36.5281 2.51125 36.5381H16.4882C15.1276 36.5181 14.027 35.4075 14.027 34.0469Z"
                      fill="#ED3366"
                    ></path>
                    <path
                      d="M58.5987 34.8174V37.0985C58.5987 40.4402 55.8773 43.1616 52.5357 43.1616C51.175 43.1616 49.8543 42.7013 48.7838 41.8609C49.244 42.3111 49.5342 42.9415 49.5342 43.6418C49.5342 45.0225 48.4136 46.133 47.0429 46.133C46.4226 46.133 45.8523 45.9029 45.4121 45.5227C47.4031 47.2036 49.9344 48.134 52.5357 48.134C58.6187 48.134 63.5712 43.1816 63.5712 37.0985V25.5928C63.5812 29.4447 61.6002 32.8464 58.5987 34.8174Z"
                      fill="#F47F9F"
                    ></path>
                    <path
                      d="M43.9912 20.1905C45.3671 20.1905 46.4825 19.0751 46.4825 17.6993C46.4825 16.3234 45.3671 15.208 43.9912 15.208C42.6154 15.208 41.5 16.3234 41.5 17.6993C41.5 19.0751 42.6154 20.1905 43.9912 20.1905Z"
                      fill="#F47F9F"
                    ></path>
                    <path
                      d="M61.0909 20.1905C62.4667 20.1905 63.5821 19.0751 63.5821 17.6993C63.5821 16.3234 62.4667 15.208 61.0909 15.208C59.715 15.208 58.5996 16.3234 58.5996 17.6993C58.5996 19.0751 59.715 20.1905 61.0909 20.1905Z"
                      fill="#F47F9F"
                    ></path>
                    <path
                      d="M25.3526 31.576C26.6732 31.576 27.7538 32.5965 27.8438 33.8972V17.9492C27.7538 19.2499 26.6732 20.2704 25.3526 20.2704C24.0319 20.2704 22.9514 19.2499 22.8613 17.9492V33.8972C22.9614 32.5965 24.0319 31.576 25.3526 31.576Z"
                      fill="#F47F9F"
                    ></path>
                    <path
                      d="M34.6475 9.43464C36.0234 9.43464 37.1387 8.31927 37.1387 6.94339C37.1387 5.56752 36.0234 4.45215 34.6475 4.45215C33.2716 4.45215 32.1562 5.56752 32.1562 6.94339C32.1562 8.31927 33.2716 9.43464 34.6475 9.43464Z"
                      fill="#F47F9F"
                    ></path>
                    <path
                      d="M34.6475 36.5479C36.0234 36.5479 37.1387 35.4326 37.1387 34.0567C37.1387 32.6808 36.0234 31.5654 34.6475 31.5654C33.2716 31.5654 32.1562 32.6808 32.1562 34.0567C32.1562 35.4326 33.2716 36.5479 34.6475 36.5479Z"
                      fill="#F47F9F"
                    ></path>
                    <path
                      d="M2.49125 36.5382C3.86712 36.5382 4.98249 35.4228 4.98249 34.0469C4.98249 32.671 3.86712 31.5557 2.49125 31.5557C1.11537 31.5557 0 32.671 0 34.0469C0 35.4228 1.11537 36.5382 2.49125 36.5382Z"
                      fill="#F47F9F"
                    ></path>
                    <path
                      d="M16.5186 36.5382C17.8945 36.5382 19.0098 35.4228 19.0098 34.0469C19.0098 32.671 17.8945 31.5557 16.5186 31.5557C15.1427 31.5557 14.0273 32.671 14.0273 34.0469C14.0273 35.4228 15.1427 36.5382 16.5186 36.5382Z"
                      fill="#F47F9F"
                    ></path>
                    <path
                      d="M2.49125 11.7266C3.86712 11.7266 4.98249 10.6113 4.98249 9.23539C4.98249 7.85951 3.86712 6.74414 2.49125 6.74414C1.11537 6.74414 0 7.85951 0 9.23539C0 10.6113 1.11537 11.7266 2.49125 11.7266Z"
                      fill="#F47F9F"
                    ></path>
                    <path
                      d="M68.6643 33.5366C68.6944 33.5666 68.7144 33.6066 68.7144 33.6567C68.7144 33.7067 68.6944 33.7467 68.6643 33.7767C68.6343 33.8067 68.5843 33.8167 68.5343 33.8167H67.884V35.8778C67.884 35.9278 67.8639 35.9678 67.8339 36.0078C67.7939 36.0378 67.7539 36.0579 67.7039 36.0579C67.6538 36.0579 67.6038 36.0378 67.5738 36.0078C67.5338 35.9778 67.5238 35.9278 67.5238 35.8778V33.8167H66.8734C66.8234 33.8167 66.7834 33.7967 66.7434 33.7667C66.7134 33.7367 66.6934 33.6967 66.6934 33.6466C66.6934 33.5966 66.7134 33.5566 66.7434 33.5266C66.7734 33.4966 66.8234 33.4766 66.8734 33.4766H68.5543C68.5943 33.4866 68.6343 33.5066 68.6643 33.5366Z"
                      fill="#ED3366"
                    ></path>
                    <path
                      d="M71.5057 33.5368C71.5357 33.5668 71.5557 33.6068 71.5557 33.6568V35.8879C71.5557 35.938 71.5357 35.978 71.5057 36.018C71.4757 36.048 71.4257 36.068 71.3756 36.068C71.3256 36.068 71.2756 36.048 71.2456 36.018C71.2156 35.988 71.1956 35.938 71.1956 35.8879V34.1871L70.4852 35.2676C70.4652 35.2876 70.4452 35.3076 70.4252 35.3277C70.3952 35.3377 70.3751 35.3477 70.3451 35.3477C70.3251 35.3477 70.2951 35.3477 70.2651 35.3277C70.2351 35.3177 70.2151 35.2976 70.2051 35.2676L69.4847 34.1571V35.8979C69.4847 35.948 69.4647 35.988 69.4347 36.028C69.4047 36.058 69.3646 36.078 69.3146 36.078C69.2646 36.078 69.2246 36.058 69.1946 36.028C69.1645 35.998 69.1445 35.948 69.1445 35.8979V33.6668C69.1445 33.6168 69.1645 33.5768 69.1946 33.5468C69.2246 33.5067 69.2746 33.4967 69.3246 33.4967C69.3546 33.4967 69.3846 33.5067 69.4147 33.5168C69.4447 33.5268 69.4647 33.5468 69.4847 33.5768L70.3551 34.8974L71.2356 33.5768C71.2756 33.5268 71.3256 33.4967 71.3856 33.4967C71.4257 33.4867 71.4657 33.5067 71.5057 33.5368Z"
                      fill="#ED3366"
                    ></path>
                  </svg>