<?xml version="1.0" standalone="no"?>
<!DOCTYPE svg PUBLIC "-//W3C//DTD SVG 1.1//EN" "http://www.w3.org/Graphics/SVG/1.1/DTD/svg11.dtd" >
<svg xmlns="http://www.w3.org/2000/svg">
<metadata>Generated by IcoMoon</metadata>
<defs>
<font id="icomoon" horiz-adv-x="1024">
<font-face units-per-em="1024" ascent="960" descent="-64" />
<missing-glyph horiz-adv-x="1024" />
<glyph unicode="&#x20;" horiz-adv-x="512" d="" />
<glyph unicode="&#xe900;" horiz-adv-x="835" d="M0 951.395h783.059v-972.37h-783.059v972.37z" />
<glyph unicode="&#xe901;" horiz-adv-x="835" d="M834.689-64h-800.269v1024h800.269v-1024zM808.874 934.185h-748.639v-972.37h748.639v972.37z" />
<glyph unicode="&#xe902;" horiz-adv-x="835" d="M451.708 947.149l-25.815-0.114 4.416-1002.702 25.815 0.114z" />
<glyph unicode="&#xe903;" horiz-adv-x="1807" d="M1144.36 792.938c-0.388 16.243-14.043 29.474-30.266 29.316-16.223-0.154-29.656-13.607-29.792-29.831-0.143-16.955 14.288-30.927 31.219-30.23 16.261 0.67 29.227 14.496 28.839 30.746zM1113.868 701.85c-50.096 0.272-90.478 41.52-89.861 91.781 0.606 49.214 41.38 89.14 90.81 88.923 50.051-0.223 90.456-41.467 89.883-91.762-0.557-49.098-41.519-89.208-90.832-88.942z" />
<glyph unicode="&#xe904;" horiz-adv-x="1807" d="M163.405 646.601c-0.403 16.273-14.021 29.492-30.253 29.368-16.981-0.128-30.742-14.737-29.816-31.646 0.889-16.186 14.989-29.048 31.179-28.434 16.201 0.61 29.289 14.53 28.89 30.712zM132.987 555.563c-49.27 0.132-89.718 40.513-89.961 89.803-0.244 50.219 40.517 91.067 90.714 90.902 49.311-0.162 89.775-40.528 89.99-89.773 0.218-50.174-40.589-91.067-90.743-90.932z" />
<glyph unicode="&#xe905;" horiz-adv-x="1807" d="M1791.003 903.594c-20.097-14.94-36.659-27.353-49.687-37.237-27.020-20.501-42.133-40.402-43.545-77.109-5.748-149.579-15.865-298.989-23.988-448.476-0.856-15.776-3.989-29.062-19.927-35.663-15.336-6.352-26.58 1.193-37.691 10.785-114.478 98.82-229.215 197.338-343.4 296.495-10.19 8.846-18.122 9.672-30.295 5.266-38.106-13.783-76.509-26.886-115.312-38.512-13.787-4.13-18.777-10.961-21-24.58-23.554-144.458-47.858-288.793-71.504-433.239-2.497-15.26-8.081-26.997-23.318-31.487-15.629-4.605-26.325 3.629-36.062 15.072-100.151 117.671-200.678 235.017-300.479 352.983-9.585 11.324-18.613 14.246-32.572 11.913-32.492-5.427-65.136-10.406-97.913-13.359-14.856-1.339-21.91-6.685-27.227-20.556-59.647-155.51-119.944-310.761-180.067-466.087-1.378-3.553-2.779-7.106-4.107-10.678-5.104-13.734-14.244-22.92-29.37-23.122-16.036-0.214-25.24 9.435-30.779 23.861-20.284 52.816-40.771 105.551-61.223 158.302-37.691 97.203-75.406 193.711-112.579 291.112-4.575 11.99-12.672 17.876-25.815 17.21-11.712-0.59-27.457-0.921-47.236-0.992-14.257-0.051-25.856 11.466-25.907 25.723 0 0.031 0 0.061 0 0.092v8.559c0 13.966 11.107 25.399 25.067 25.804 229.090 6.644 399.954 17.201 512.591 31.673 343.522 44.138 675.023 130.246 984.767 290.204 54.414 28.1 130.245 75.733 227.493 142.899 14.364 9.921 33.878 7.528 45.42-5.568 10.301-11.688 9.176-29.513-2.512-39.814-0.586-0.517-1.194-1.009-1.821-1.475z" />
<glyph unicode="&#xe906;" horiz-adv-x="1807" d="M1700.304 151.064c-16.175 0.437-30.137-12.576-30.863-28.77-0.723-16.153 12.094-30.317 28.292-31.27 16.943-0.994 31.556 12.644 31.771 29.658 0.207 16.228-12.971 29.941-29.199 30.381zM1700.002 30.656c-50.228-0.165-91.035 40.608-90.859 90.791 0.174 49.328 40.503 89.698 89.824 89.914 50.19 0.218 91.009-40.548 90.881-90.768-0.121-49.23-40.619-89.774-89.846-89.936z" />
<glyph unicode="&#xe907;" horiz-adv-x="1807" d="M662.522 60.247c0.305 16.228-12.797 29.997-29.046 30.532-16.234 0.535-30.195-12.327-31.012-28.566-0.851-16.921 12.989-31.473 29.954-31.496 16.193-0.019 29.799 13.329 30.104 29.53zM632.884 151.125c50.115-0.25 90.52-41.456 89.933-91.713-0.58-49.234-41.316-89.178-90.746-88.991-50.062 0.193-90.49 41.406-89.948 91.698 0.527 49.106 41.459 89.246 90.761 89.006z" />
<glyph unicode="&#xe908;" horiz-adv-x="1807" d="M1239.702 193.984h-60.812v59.824h59.383v60.814h60.496v-59.386h60.827v-60.49h-59.399v-60.829h-60.496z" />
<glyph unicode="&#xe909;" horiz-adv-x="1807" d="M266.756 826.852c11.662 12.222 24.88 26.078 36.721 38.493 31.049-30.838 61.43-61.017 92.355-91.735-12.469-12.037-26.27-25.365-38.673-37.34-29.981 30.040-60.161 60.285-90.402 90.583z" />
<glyph unicode="&#xe90a;" horiz-adv-x="1807" d="M572.211 762.084c12.697-12.019 26.585-25.168 38.747-36.677-30.851-31.117-60.996-61.519-91.62-92.398-12.061 12.279-25.51 25.968-37.456 38.131 30.338 30.546 60.469 60.881 90.329 90.945z" />
<glyph unicode="&#xe90b;" horiz-adv-x="1807" d="M1245.823 555.563c20.71-21.39 41.146-42.495 62.143-64.182-13.277-12.82-27.711-26.751-40.482-39.079-20.363 20.645-41.291 41.86-62.778 63.648 11.89 11.452 26.336 25.371 41.117 39.612z" />
<glyph unicode="&#xe90c;" horiz-adv-x="1807" d="M1462.857 43.094c-15.861-15.481-35.948-35.090-56.818-55.464-11.955 12.902-25.288 27.292-37.838 40.836 18.158 17.595 37.912 36.739 55.53 53.819 11.881-11.899 25.973-26.016 39.125-39.191z" />
<glyph unicode="&#xe90d;" horiz-adv-x="1807" d="M559.958 228.571c-10.622 10.993-23.649 24.481-35.050 36.284 19.077 18.725 38.955 38.236 59.467 58.372 10.687-11.054 23.715-24.523 35.188-36.393-19.127-18.695-39.051-38.172-59.605-58.263z" />
<glyph unicode="&#xe90e;" horiz-adv-x="843" d="M60.235 951.395h783.059v-972.37h-783.059v972.37z" />
<glyph unicode="&#xe90f;" horiz-adv-x="843" d="M404.437 951.61h-25.815v-998.615h25.815z" />
<glyph unicode="&#xe910;" horiz-adv-x="843" d="M800.269-64h-800.269v1024h800.269v-1024zM774.454 934.185h-748.639v-972.37h748.639v972.37z" />
<glyph unicode="&#xe911;" horiz-adv-x="843" d="M0 435.092h774.454v25.815h-774.454z" />
<glyph unicode="&#xe912;" horiz-adv-x="794" d="M51.2 960h537.844l204.556-195.672v-777.128h-742.4z" />
<glyph unicode="&#xe913;" horiz-adv-x="794" d="M772.267 735.664v-795.397h-768v998.4h555.78l212.22-203.003zM549.774 913.067h-519.908v-947.2h716.8v758.859l-196.892 188.341z" />
<glyph unicode="&#xe914;" horiz-adv-x="794" d="M546.133 934.4l204.8-187.733h-204.8z" />
<glyph unicode="&#xe915;" horiz-adv-x="663" d="M120.471 951.395h481.882c33.267 0 60.235-26.968 60.235-60.235v-851.899c0-33.267-26.968-60.235-60.235-60.235h-481.882c-33.267 0-60.235 26.968-60.235 60.235v851.899c0 33.267 26.968 60.235 60.235 60.235z" />
<glyph unicode="&#xe916;" horiz-adv-x="663" d="M563.63 960c40.396 0 73.143-32.747 73.143-73.143v-877.714c0-40.396-32.747-73.143-73.143-73.143h-490.487c-40.396 0-73.143 32.747-73.143 73.143v877.714c0 40.396 32.747 73.143 73.143 73.143h490.487zM563.63 934.185h-490.487c-26.138 0-47.328-21.189-47.328-47.328v-877.714c0-26.138 21.189-47.328 47.328-47.328h490.487c26.138 0 47.328 21.189 47.328 47.328v877.714c0 26.138-21.189 47.328-47.328 47.328z" />
<glyph unicode="&#xe917;" horiz-adv-x="843" d="M60.235 951.395h783.059v-972.37h-783.059v972.37z" />
<glyph unicode="&#xe918;" horiz-adv-x="843" d="M800.269-64h-800.269v1024h800.269v-1024zM774.454 934.185h-748.639v-972.37h748.639v972.37z" />
<glyph unicode="&#xe919;" horiz-adv-x="843" d="M60.235 951.395h783.059v-972.37h-783.059v972.37z" />
<glyph unicode="&#xe91a;" horiz-adv-x="843" d="M800.269-64h-800.269v1024h800.269v-1024zM774.454 934.185h-748.639v-972.37h748.639v972.37z" />
<glyph unicode="&#xe91b;" horiz-adv-x="843" d="M25.815 443.697h748.639v25.815h-748.639z" />
</font>
</defs>
</svg>
